<?xml version="1.0" standalone="no"?>
<!DOCTYPE svg PUBLIC "-//W3C//DTD SVG 20010904//EN"
 "http://www.w3.org/TR/2001/REC-SVG-20010904/DTD/svg10.dtd">
<svg version="1.0" xmlns="http://www.w3.org/2000/svg"
 width="512.000000pt" height="512.000000pt" viewBox="0 0 512.000000 512.000000"
 preserveAspectRatio="xMidYMid meet">

<g transform="translate(0.000000,512.000000) scale(0.100000,-0.100000)"
fill="#000000" stroke="none">
<path d="M2505 4839 c-11 -6 -30 -37 -44 -72 -13 -34 -42 -111 -66 -172 -24
-60 -57 -148 -74 -195 -18 -47 -36 -94 -41 -105 -16 -35 -47 -116 -100 -255
-28 -74 -66 -173 -85 -220 -18 -47 -46 -116 -60 -155 -54 -141 -116 -301 -125
-320 -10 -22 -40 -102 -89 -235 -18 -47 -36 -94 -41 -105 -12 -27 -39 -95 -95
-240 -25 -66 -63 -165 -85 -220 -21 -55 -51 -131 -65 -170 -59 -154 -117 -301
-125 -320 -5 -11 -20 -49 -33 -85 -14 -36 -53 -137 -87 -225 -34 -88 -82 -212
-106 -275 -25 -63 -62 -160 -84 -215 -39 -100 -81 -209 -147 -380 -19 -49 -49
-128 -68 -175 -150 -382 -149 -379 -130 -400 17 -19 33 -20 435 -20 318 0 420
3 432 13 14 11 37 70 100 257 10 30 23 64 27 75 5 11 30 81 56 155 98 286 127
369 171 490 24 69 44 129 44 133 0 5 6 23 14 40 8 18 22 55 31 82 17 49 50
146 140 400 25 72 61 177 81 235 19 58 39 114 45 125 8 18 80 224 161 463 18
50 37 92 43 92 5 0 25 -42 44 -92 35 -99 110 -313 136 -388 9 -25 19 -54 24
-65 5 -11 32 -87 61 -170 29 -82 60 -172 70 -200 10 -27 49 -135 85 -240 37
-104 76 -212 86 -240 10 -27 48 -135 85 -240 36 -104 73 -204 80 -222 8 -17
14 -36 14 -43 0 -6 9 -32 19 -58 11 -26 40 -105 64 -177 111 -317 141 -397
154 -411 12 -12 84 -14 429 -14 400 0 415 1 434 20 15 15 18 25 10 42 -5 13
-21 55 -36 93 -14 39 -32 84 -40 100 -7 17 -27 68 -45 115 -17 47 -56 148 -86
225 -30 77 -66 169 -80 205 -35 93 -74 192 -84 215 -4 11 -29 74 -54 140 -26
66 -58 149 -72 185 -14 36 -36 94 -50 130 -13 36 -28 74 -33 85 -5 11 -41 103
-81 205 -97 251 -147 381 -207 535 -28 72 -76 195 -107 275 -31 80 -76 195
-99 255 -24 61 -69 178 -101 260 -32 83 -64 164 -71 180 -7 17 -27 68 -44 115
-17 47 -44 117 -60 155 -16 39 -52 131 -81 205 -312 809 -307 798 -333 816
-23 16 -33 17 -61 3z"/>
</g>
</svg>
