<?xml version="1.0" standalone="no"?>
<!DOCTYPE svg PUBLIC "-//W3C//DTD SVG 20010904//EN"
 "http://www.w3.org/TR/2001/REC-SVG-20010904/DTD/svg10.dtd">
<svg version="1.0" xmlns="http://www.w3.org/2000/svg"
 width="512.000000pt" height="512.000000pt" viewBox="0 0 512.000000 512.000000"
 preserveAspectRatio="xMidYMid meet">

<g transform="translate(0.000000,512.000000) scale(0.100000,-0.100000)"
fill="#000000" stroke="none">
<path d="M1032 4844 l-22 -15 0 -1350 0 -1350 853 1 c921 1 935 1 1092 -53
152 -53 251 -130 305 -242 91 -184 56 -407 -85 -547 -62 -62 -118 -95 -220
-132 -128 -45 -160 -48 -623 -53 l-442 -5 2 -416 3 -417 370 -3 c395 -3 573 8
780 49 345 69 603 195 795 389 107 108 140 151 200 264 93 177 131 329 137
561 5 175 0 225 -35 357 -75 281 -287 523 -559 638 -46 19 -83 38 -83 42 0 3
42 29 94 57 274 148 452 390 507 692 17 93 17 365 0 474 -27 169 -88 328 -183
472 -54 83 -207 240 -279 287 -24 16 -55 37 -69 46 -76 51 -193 105 -370 170
-81 30 -285 70 -460 90 -41 5 -437 9 -880 9 -714 1 -808 -1 -828 -15z m1763
-832 c44 -12 122 -43 173 -68 151 -76 233 -180 267 -344 18 -87 18 -138 1
-212 -40 -164 -160 -282 -354 -347 -150 -51 -202 -55 -612 -56 l-385 0 -3 528
-2 529 417 -4 c392 -4 423 -6 498 -26z"/>
</g>
</svg>
